<svg height="512pt" viewBox="0 0 512 512.00001" width="512pt" xmlns="http://www.w3.org/2000/svg"><path d="m512 256c0 141.386719-114.617188 256-256 256-141.386719 0-256-114.613281-256-256 0-141.382812 114.613281-256 256-256 141.382812 0 256 114.617188 256 256zm0 0" fill="#fdd25d"/><path d="m410.785156 459.921875c-42.976562 32.671875-96.613281 52.078125-154.78125 52.078125-58.167968 0-111.804687-19.40625-154.78125-52.078125 32.101563-15.683594 89.414063-26.121094 154.78125-26.121094 65.367188 0 122.691406 10.4375 154.78125 26.121094zm0 0" fill="#eaa339"/><path d="m436.167969 150.21875c-35.816407-200.289062-324.519531-200.289062-360.335938 0-3.1875 17.832031-4.851562 36.1875-4.851562 54.9375 0 126.746094 76.058593 235.710938 185.019531 283.792969 108.960938-48.082031 185.019531-157.046875 185.019531-283.792969 0-18.75-1.664062-37.105469-4.851562-54.9375zm0 0" fill="#fc5f61"/><path d="m400.859375 183.796875c0 74.394531-56.078125 135.707031-128.273437 143.921875-5.441407.628906-10.96875.949219-16.578126.949219-80.003906 0-144.871093-64.867188-144.871093-144.871094 0-80 64.867187-144.855469 144.871093-144.855469 5.609376 0 11.136719.324219 16.578126.953125 72.199218 8.214844 128.273437 69.511719 128.273437 143.902344zm0 0" fill="#fcf8f2"/><path d="m273.789062 29.519531c-5.863281-.679687-11.839843-1.023437-17.785156-1.023437-6.425781 0-12.765625.390625-18.988281 1.152344-16.5 2.019531-21.175781-22.027344-5.136719-26.398438 7.949219-2.167969 16.039063-3.25 24.125-3.25-81.125 0-162.261718 50.082031-180.171875 150.226562-3.1875 17.824219-4.847656 36.183594-4.847656 54.929688 0 126.746094 76.058594 235.707031 185.019531 283.792969-34.179687-22.261719-63.585937-57.566407-85.316406-101.640625-14.457031-29.335938 12.636719-62.390625 44.171875-53.71875 13.109375 3.605468 26.90625 5.53125 41.144531 5.53125 5.945313 0 11.921875-.347656 17.761719-1.023438 78.410156-8.914062 137.539063-75.253906 137.539063-154.300781 0-79.035156-59.128907-145.367187-137.515626-154.277344zm-2.40625 287.816407c-5.066406.585937-10.238281.886718-15.378906.886718-56.164062 0-104.386718-34.628906-124.46875-83.652344 0 0 .011719 0 0-.011718-6.40625-15.671875-9.945312-32.808594-9.945312-50.761719 0-24.910156 6.8125-48.253906 18.660156-68.273437 23.425781-39.550782 66.550781-66.132813 115.753906-66.132813 5.140625 0 10.3125.292969 15.402344.890625 67.84375 7.710938 119.003906 65.117188 119.003906 133.515625 0 68.410156-51.160156 125.816406-119.027344 133.539063zm0 0" fill="#e53841"/><path d="m344.660156 126.175781-31.03125-31.03125-57.632812 57.628907-57.628906-57.628907-31.03125 31.03125 57.628906 57.628907-57.628906 57.632812 31.03125 31.03125 57.628906-57.628906 57.632812 57.628906 31.03125-31.03125-57.628906-57.632812zm0 0" fill="#494966"/></svg>