<?xml version="1.0" encoding="iso-8859-1"?>
<!-- Generator: Adobe Illustrator 19.0.0, SVG Export Plug-In . SVG Version: 6.00 Build 0)  -->
<svg version="1.1" id="Layer_1" xmlns="http://www.w3.org/2000/svg" xmlns:xlink="http://www.w3.org/1999/xlink" x="0px" y="0px"
	 viewBox="0 0 511.995 511.995" style="enable-background:new 0 0 511.995 511.995;" xml:space="preserve">
<circle style="fill:#FF873D;" cx="255.997" cy="255.997" r="255.997"/>
<path style="fill:#E37936;" d="M507.349,305.255c-21.562,111.194-115.211,196.598-230.21,205.9L87.518,320.687l108.023-86.038
	L424.694,222.6L507.349,305.255z"/>
<g>
	<circle style="fill:#055661;" cx="207.378" cy="190.677" r="19.871"/>
	<circle style="fill:#055661;" cx="305.678" cy="190.677" r="19.871"/>
	<path style="fill:#055661;" d="M154.53,187.507l-46.295,20.717l34.246,0.634c-0.846,3.594-1.48,7.399-1.48,11.204
		c0,25.579,20.717,46.084,46.084,46.084c4.651,0,9.09-0.634,13.318-1.902l3.171,25.79l12.473-34.246
		c10.57-8.456,17.124-21.351,17.124-35.937c0-25.579-20.717-46.084-46.084-46.084c-12.684,0-24.311,5.285-32.766,13.529
		L154.53,187.507z"/>
</g>
<path style="fill:#038091;" d="M136.561,202.094c-38.474,0-69.549,31.075-69.549,69.549s31.075,69.549,69.549,69.549
	s69.549-31.075,69.549-69.549S175.036,202.094,136.561,202.094z"/>
<path style="fill:#F7F7F8;" d="M136.561,220.908c-28.115,0-50.735,22.831-50.735,50.735c0,28.115,22.831,50.735,50.735,50.735
	c28.115,0,50.735-22.831,50.735-50.735C187.296,243.528,164.677,220.908,136.561,220.908z"/>
<path style="fill:#055661;" d="M357.47,187.507l46.296,20.717l-34.246,0.634c0.846,3.594,1.48,7.399,1.48,11.204
	c0,25.579-20.717,46.084-46.084,46.084c-4.651,0-9.09-0.634-13.318-1.902l-3.171,25.79l-12.473-34.246
	c-10.569-8.456-17.123-21.351-17.123-35.937c0-25.579,20.717-46.084,46.084-46.084c12.684,0,24.311,5.285,32.766,13.529
	L357.47,187.507z"/>
<path style="fill:#038091;" d="M375.438,202.094c38.474,0,69.549,31.075,69.549,69.549s-31.075,69.549-69.549,69.549
	s-69.549-31.075-69.549-69.549S336.964,202.094,375.438,202.094z"/>
<path style="fill:#F7F7F8;" d="M375.438,220.908c28.115,0,50.735,22.831,50.735,50.735c0,28.115-22.831,50.735-50.735,50.735
	c-28.115,0-50.735-22.831-50.735-50.735C324.704,243.528,347.323,220.908,375.438,220.908z"/>
<path style="fill:#C94545;" d="M211.818,268.05c4.862,0.423,10.57-5.919,12.261-17.124c1.691-10.993,7.399-9.935,13.318-10.782
	c-3.805-2.96-9.513-17.546-9.513-21.351c0-3.805,0.634-5.073,1.902-7.187l-1.902-3.805H209.07l-9.09-5.496l-24.944,1.057
	c29.595,12.049,44.604,39.954,36.572,64.476L211.818,268.05z M300.393,268.05c-4.862,0.423-10.569-5.919-12.261-17.124
	c-1.691-10.993-7.399-9.935-13.318-10.782c3.805-2.96,9.513-17.546,9.513-21.351c0-3.805-0.634-5.073-1.902-7.187l1.902-3.805
	h18.815l9.09-5.496l24.944,1.057c-29.595,12.049-44.604,39.954-36.572,64.476L300.393,268.05z M268.472,185.394L268.472,185.394
	l3.382,12.684l0,0h-31.075l0,0l3.382-12.684l0,0h24.522H268.472z"/>
<path style="fill:#E84F4F;" d="M256.634,190.678c17.757,0,32.344,14.375,32.344,32.344c0,17.757-14.375,32.344-32.344,32.344
	c-17.757,0-32.344-14.375-32.344-32.344C224.291,205.265,238.666,190.678,256.634,190.678z M256.634,202.729
	c11.204,0,20.082,9.09,20.082,20.082c0,11.204-9.09,20.082-20.082,20.082c-11.204,0-20.082-9.09-20.082-20.082
	C236.552,211.607,245.641,202.729,256.634,202.729z"/>
<path style="fill:#FFFFFF;" d="M256.634,202.94c11.204,0,20.082,9.09,20.082,20.082c0,11.204-9.09,20.082-20.082,20.082
	c-11.204,0-20.082-9.09-20.082-20.082C236.552,211.818,245.641,202.94,256.634,202.94z"/>
<g>
</g>
<g>
</g>
<g>
</g>
<g>
</g>
<g>
</g>
<g>
</g>
<g>
</g>
<g>
</g>
<g>
</g>
<g>
</g>
<g>
</g>
<g>
</g>
<g>
</g>
<g>
</g>
<g>
</g>
</svg>
